<svg width="271" height="74" viewBox="0 0 271 74" fill="none" xmlns="http://www.w3.org/2000/svg">
<path d="M0 7.64648V6.54785H5.22461L26.1719 31.9385H26.2207L25.8789 7.89062L22.1436 7.64648V6.54785H31.1768V7.64648L27.417 7.89062L27.6855 41.875H26.1963L5.24902 16.4111H5.2002L5.54199 40.0439L9.27734 40.2881V41.3867H0.244141V40.2881L4.00391 40.0439L3.73535 7.89062L0 7.64648Z" fill="#005DFF"/>
<path d="M34.6191 41.3867V40.2881L38.3789 40.0439V7.89062L34.6191 7.64648V6.54785H58.667L58.9111 16.4844H57.8857C57.6904 15.3776 57.4788 14.4417 57.251 13.6768C57.0394 12.8955 56.7301 12.1143 56.3232 11.333C55.9163 10.5518 55.4362 9.93327 54.8828 9.47754C54.3457 9.00553 53.6458 8.62305 52.7832 8.33008C51.9368 8.03711 50.9521 7.89062 49.8291 7.89062C48.4456 7.89062 46.7122 7.97201 44.6289 8.13477V22.6367C45.1172 22.6855 46.0042 22.71 47.29 22.71C48.999 22.71 50.2197 22.2949 50.9521 21.4648C51.6846 20.6185 52.0508 19.0885 52.0508 16.875H53.3936V29.9854H52.0508C52.0508 27.7718 51.6764 26.2337 50.9277 25.3711C50.1953 24.4922 48.9827 24.0527 47.29 24.0527C46.0368 24.0527 45.1497 24.0771 44.6289 24.126V39.7998C46.7122 39.9626 48.7793 40.0439 50.8301 40.0439C51.7904 40.0439 52.6367 39.9707 53.3691 39.8242C54.1016 39.6615 54.7363 39.401 55.2734 39.043C55.8105 38.6849 56.2663 38.2861 56.6406 37.8467C57.015 37.3909 57.3405 36.8132 57.6172 36.1133C57.9102 35.4134 58.1462 34.7135 58.3252 34.0137C58.5042 33.3138 58.6914 32.4512 58.8867 31.4258H59.9365L59.668 41.3867H34.6191Z" fill="#005DFF"/>
<path d="M61.7188 7.64648V6.54785H75.2686V7.64648L71.9482 7.89062L78.4424 32.2803H78.54L86.084 6.03516H87.1826L95.9717 32.1826H96.0693L103.052 7.89062L99.7559 7.64648V6.54785H107.495V7.64648L104.541 7.89062L94.6289 41.875H93.5303L84.5459 16.4111H84.4971L77.0264 41.875H75.9277L65.4053 7.89062L61.7188 7.64648Z" fill="#005DFF"/>
<path d="M158.987 72.3867V71.2881L162.746 71.0439V38.8906L158.987 38.6465V37.5479H172.243C174.034 37.5479 175.686 37.7432 177.199 38.1338C178.729 38.5081 180.105 39.0859 181.325 39.8672C182.546 40.6322 183.498 41.6657 184.182 42.9678C184.882 44.2536 185.232 45.7428 185.232 47.4355C185.232 48.998 184.963 50.4059 184.426 51.6592C183.905 52.9124 183.197 53.9622 182.302 54.8086C181.407 55.6549 180.324 56.363 179.055 56.9326C177.802 57.486 176.467 57.8929 175.051 58.1533C173.651 58.3975 172.162 58.5195 170.583 58.5195C170.241 58.5195 169.712 58.5033 168.996 58.4707V71.0439L172.756 71.2881V72.3867H158.987ZM168.996 57.0791C169.566 57.1279 170.144 57.1523 170.73 57.1523C176.068 57.1523 178.738 53.8971 178.738 47.3867C178.738 45.8079 178.558 44.4652 178.2 43.3584C177.842 42.2354 177.322 41.3727 176.638 40.7705C175.971 40.152 175.222 39.7126 174.392 39.4521C173.578 39.1755 172.642 39.0371 171.584 39.0371C170.787 39.0371 169.924 39.1022 168.996 39.2324V57.0791Z" fill="#005DFF"/>
<path d="M183.767 72.3867V71.2881L186.721 71.0439L198.269 36.5469H199.367L211.306 71.0439L214.529 71.2881V72.3867H201.467V71.2881L204.763 71.0439L201.882 62.2793H190.945L188.113 71.0439L191.408 71.2881V72.3867H183.767ZM191.384 60.8145L201.345 60.6191L196.462 45.6289H196.364L191.384 60.8145Z" fill="#005DFF"/>
<path d="M215.407 55.5898C215.407 53.7832 215.603 52.001 215.993 50.2432C216.384 48.4854 217.002 46.7845 217.849 45.1406C218.711 43.4967 219.761 42.0563 220.998 40.8193C222.235 39.5661 223.765 38.5651 225.588 37.8164C227.411 37.0677 229.413 36.6934 231.594 36.6934C234.133 36.6934 236.371 37.3932 238.308 38.793C240.245 40.1764 241.213 41.8203 241.213 43.7246C241.213 44.6849 240.904 45.5068 240.285 46.1904C239.683 46.874 238.853 47.2158 237.795 47.2158C236.786 47.2158 235.964 46.9066 235.329 46.2881C234.695 45.6533 234.377 44.8558 234.377 43.8955C234.377 42.9515 234.678 42.1621 235.28 41.5273C235.883 40.8763 236.631 40.5508 237.527 40.5508C237.706 40.5508 237.836 40.5589 237.917 40.5752V40.4775C237.673 40.0218 237.014 39.5091 235.94 38.9395C234.865 38.3698 233.572 38.085 232.058 38.085C229.096 38.085 226.662 39.623 224.758 42.6992C222.854 45.7754 221.902 49.8363 221.902 54.8818C221.902 57.0466 222.089 59.0973 222.463 61.0342C222.837 62.9548 223.391 64.7044 224.123 66.2832C224.872 67.862 225.873 69.1234 227.126 70.0674C228.379 70.9951 229.812 71.459 231.423 71.459C233.734 71.459 235.744 70.7754 237.453 69.4082C239.179 68.0247 240.513 66.2588 241.457 64.1104L242.605 64.6475C240.277 70.3766 236.363 73.2412 230.862 73.2412C228.469 73.2412 226.353 72.9076 224.514 72.2402C222.675 71.5729 221.185 70.694 220.046 69.6035C218.923 68.4967 218.003 67.1621 217.287 65.5996C216.571 64.0371 216.075 62.4502 215.798 60.8389C215.538 59.2275 215.407 57.4779 215.407 55.5898Z" fill="#005DFF"/>
<path d="M244.973 72.3867V71.2881L248.733 71.0439V38.8906L244.973 38.6465V37.5479H269.021L269.265 47.4844H268.239C268.044 46.3776 267.833 45.4417 267.605 44.6768C267.393 43.8955 267.084 43.1143 266.677 42.333C266.27 41.5518 265.79 40.9333 265.237 40.4775C264.699 40.0055 264 39.623 263.137 39.3301C262.291 39.0371 261.306 38.8906 260.183 38.8906C258.799 38.8906 257.066 38.972 254.983 39.1348V53.6367C255.471 53.6855 256.358 53.71 257.644 53.71C259.353 53.71 260.573 53.2949 261.306 52.4648C262.038 51.6185 262.405 50.0885 262.405 47.875H263.747V60.9854H262.405C262.405 58.7718 262.03 57.2337 261.281 56.3711C260.549 55.4922 259.336 55.0527 257.644 55.0527C256.391 55.0527 255.503 55.0771 254.983 55.126V70.7998C257.066 70.9626 259.133 71.0439 261.184 71.0439C262.144 71.0439 262.99 70.9707 263.723 70.8242C264.455 70.6615 265.09 70.401 265.627 70.043C266.164 69.6849 266.62 69.2861 266.994 68.8467C267.369 68.391 267.694 67.8131 267.971 67.1133C268.264 66.4134 268.5 65.7135 268.679 65.0137C268.858 64.3138 269.045 63.4512 269.24 62.4258H270.29L270.022 72.3867H244.973Z" fill="#005DFF"/>
<path d="M129.669 2.68555C127.326 2.68555 125.259 2.96224 123.468 3.51562C121.71 4.06901 120.229 4.85026 119.025 5.85938C117.82 6.86849 116.909 8.08919 116.29 9.52148C115.705 10.9212 115.412 12.4674 115.412 14.1602C115.412 15.3646 115.574 16.5527 115.9 17.7246C116.225 18.8965 116.925 20.1009 117.999 21.3379C119.074 22.5423 120.62 23.7956 122.638 25.0977C124.689 26.3997 127.44 27.7995 130.89 29.2969C134.861 31.1198 138.214 32.8288 140.949 34.4238C143.716 36.0189 145.962 37.7116 147.687 39.502C149.412 41.2923 150.649 43.3105 151.398 45.5566C152.179 47.7702 152.57 50.4232 152.57 53.5156C152.57 55.8594 152.098 58.2031 151.154 60.5469C150.21 62.8906 148.777 64.9902 146.857 66.8457C144.969 68.7012 142.576 70.2148 139.679 71.3867C136.815 72.526 133.445 73.0957 129.572 73.0957C125.275 73.0957 121.662 72.6888 118.732 71.875C115.802 71.0938 113.442 70.0684 111.652 68.7988C109.894 67.5293 108.624 66.097 107.843 64.502C107.062 62.8743 106.671 61.2467 106.671 59.6191C106.671 58.5449 106.834 57.5521 107.16 56.6406C107.485 55.6966 107.957 54.8828 108.576 54.1992C109.227 53.4831 110.008 52.9297 110.919 52.5391C111.863 52.1159 112.921 51.9043 114.093 51.9043C115.167 51.9043 116.144 52.0996 117.023 52.4902C117.902 52.8483 118.634 53.3529 119.22 54.0039C119.839 54.6224 120.311 55.3711 120.636 56.25C120.994 57.0964 121.173 58.0241 121.173 59.0332C121.173 61.3444 120.506 63.0859 119.171 64.2578C117.837 65.4297 116.111 66.0156 113.996 66.0156V66.2109C114.223 66.4714 114.663 66.8294 115.314 67.2852C115.998 67.7409 116.925 68.1966 118.097 68.6523C119.302 69.1081 120.766 69.515 122.492 69.873C124.249 70.1986 126.317 70.3613 128.693 70.3613C130.646 70.3613 132.583 70.1009 134.503 69.5801C136.456 69.0592 138.182 68.3105 139.679 67.334C141.209 66.3574 142.446 65.1693 143.39 63.7695C144.334 62.3698 144.806 60.791 144.806 59.0332C144.806 57.5358 144.529 56.1361 143.976 54.834C143.423 53.5319 142.381 52.2135 140.851 50.8789C139.321 49.5117 137.189 48.0632 134.455 46.5332C131.753 44.9707 128.221 43.2129 123.859 41.2598C120.636 39.8926 117.983 38.3952 115.9 36.7676C113.849 35.1074 112.221 33.3659 111.017 31.543C109.845 29.6875 109.031 27.7669 108.576 25.7812C108.12 23.763 107.892 21.696 107.892 19.5801C107.892 16.9108 108.38 14.388 109.357 12.0117C110.333 9.63542 111.749 7.56836 113.605 5.81055C115.46 4.02018 117.739 2.60417 120.441 1.5625C123.175 0.520833 126.284 0 129.767 0C133.12 0 136.033 0.390625 138.507 1.17188C141.014 1.95312 143.081 2.99479 144.708 4.29688C146.336 5.56641 147.557 7.0638 148.371 8.78906C149.184 10.4818 149.591 12.2559 149.591 14.1113C149.591 15.0879 149.428 16.0319 149.103 16.9434C148.777 17.8223 148.305 18.6035 147.687 19.2871C147.068 19.9382 146.303 20.4753 145.392 20.8984C144.481 21.2891 143.439 21.4844 142.267 21.4844C141.193 21.4844 140.216 21.3053 139.337 20.9473C138.458 20.5892 137.693 20.1009 137.042 19.4824C136.424 18.8639 135.936 18.1315 135.578 17.2852C135.252 16.4388 135.089 15.5111 135.089 14.502C135.089 13.3626 135.285 12.3535 135.675 11.4746C136.066 10.5632 136.587 9.81445 137.238 9.22852C137.921 8.61003 138.719 8.1543 139.63 7.86133C140.542 7.53581 141.518 7.37305 142.56 7.37305V7.17773C142.365 6.94987 141.974 6.5918 141.388 6.10352C140.802 5.58268 139.988 5.07812 138.947 4.58984C137.905 4.06901 136.619 3.62956 135.089 3.27148C133.559 2.88086 131.753 2.68555 129.669 2.68555Z" fill="#005DFF"/>
</svg>
