<svg width="27" height="42" viewBox="0 0 27 42" fill="none" xmlns="http://www.w3.org/2000/svg">
<path d="M24.0929 10.8568L14.3287 5.5253M24.0929 10.8568L24.9816 9.22947C26.4539 6.53315 25.4615 3.15386 22.7652 1.68161C20.0689 0.209366 16.6896 1.20168 15.2174 3.898L14.3287 5.5253M24.0929 10.8568L10.7642 35.2674M14.3287 5.5253L0.999986 29.9359M20.8382 9.07961L7.87585 32.8192M17.5834 7.30245L4.62109 31.0421M0.999986 29.9359L1.43922 40.7385L10.7642 35.2674M0.999986 29.9359C0.999986 29.9359 2.29396 29.7862 3.07178 30.0109C3.62147 30.1696 4.16265 30.5873 4.62109 31.0421M10.7642 35.2674C10.7642 35.2674 10.1907 34.098 9.58128 33.5652C9.15049 33.1885 8.50641 32.959 7.87585 32.8192M6.10186 38.003L1.21974 35.3373M7.87585 32.8192C6.86147 32.5944 5.88211 32.6016 5.88211 32.6016C5.88211 32.6016 5.3587 31.7738 4.62109 31.0421" stroke="#FF5214" stroke-width="2" stroke-linecap="round" stroke-linejoin="round"/>
</svg>
