<svg width="34" height="34" viewBox="0 0 34 34" fill="none" xmlns="http://www.w3.org/2000/svg">
<path d="M23.6309 0C25.3455 0.0050641 26.7379 1.37999 26.7705 3.0918V6.02441H30.8564C32.5925 6.02465 33.9998 7.43194 34 9.16797V29.0488C33.9999 31.7527 31.8301 33.9551 29.1299 33.999L29.0488 34H4.34473C1.97213 33.9929 0.0462125 32.09 0.000976562 29.7227L0 29.6514V3.13965C0.00518895 1.4251 1.38007 0.0336127 3.0918 0.000976562L3.14355 0H23.6309ZM3.14746 2.67285C2.89206 2.67377 2.68429 2.87654 2.67383 3.12598L2.67285 3.14355V29.6475C2.67418 30.0719 2.83293 30.4593 3.09277 30.7549L3.12891 30.7949C3.14722 30.8145 3.16633 30.8339 3.18555 30.8525L3.22461 30.8887C3.51549 31.1536 3.8992 31.3178 4.32031 31.3262L4.34863 31.3271H24.6533C24.299 30.645 24.0977 29.8706 24.0977 29.0488V3.14746C24.0967 2.89218 23.8948 2.68447 23.6455 2.67383L23.627 2.67285H3.14746ZM29.0439 31.3271H29.0488L29.0469 31.3262L29.0439 31.3271ZM26.7705 29.0488C26.7706 30.3062 27.7897 31.3251 29.0469 31.3262H29.0918L29.124 31.3252C30.3359 31.286 31.3066 30.3003 31.3262 29.0859L31.3271 29.0488V9.16797C31.3269 8.90835 31.1161 8.69751 30.8564 8.69727H26.7705V29.0488ZM20.6143 25.3027C21.3523 25.3027 21.951 25.9007 21.9512 26.6387C21.9512 27.3681 21.3667 27.9616 20.6406 27.9756H6.15625C5.41806 27.9756 4.81934 27.3769 4.81934 26.6387C4.81955 25.9095 5.40397 25.3167 6.12988 25.3027H20.6143ZM20.6143 20.4824C21.3524 20.4824 21.9512 21.0812 21.9512 21.8193C21.9512 22.5487 21.3667 23.1413 20.6406 23.1553L20.6143 23.1562H6.15625C5.41806 23.1562 4.81934 22.5575 4.81934 21.8193C4.81934 21.0899 5.40384 20.4974 6.12988 20.4834L6.15625 20.4824H20.6143ZM20.6143 15.6631C21.3524 15.6631 21.9512 16.2618 21.9512 17C21.9512 17.7294 21.3667 18.3219 20.6406 18.3359L20.6143 18.3369H6.15625C5.41807 18.3369 4.81936 17.7382 4.81934 17C4.81934 16.2706 5.40383 15.6781 6.12988 15.6641L6.15625 15.6631H20.6143ZM20.6143 10.8438C21.3524 10.8438 21.9512 11.4425 21.9512 12.1807C21.9511 12.91 21.3666 13.5026 20.6406 13.5166H15.7949C15.0569 13.5165 14.4591 12.9187 14.459 12.1807C14.459 11.4513 15.0426 10.8579 15.7686 10.8438H20.6143ZM20.6143 6.02441C21.3524 6.02441 21.9512 6.62314 21.9512 7.36133C21.9509 8.09051 21.3665 8.68325 20.6406 8.69727H15.7949C15.057 8.69716 14.4592 8.09923 14.459 7.36133C14.459 6.63201 15.0426 6.03856 15.7686 6.02441H20.6143Z" fill="#DBBB00"/>
<path d="M10.9755 13.3854H6.15599C5.49055 13.3854 4.95111 12.846 4.95111 12.1805V7.36103C4.95111 6.6956 5.49055 6.15616 6.15599 6.15616H10.9755C11.6409 6.15616 12.1804 6.6956 12.1804 7.36103V12.1805C12.1804 12.846 11.6409 13.3854 10.9755 13.3854Z" fill="#DBBB00"/>
</svg>
