<svg width="42" height="42" viewBox="0 0 42 42" fill="none" xmlns="http://www.w3.org/2000/svg">
<path fill-rule="evenodd" clip-rule="evenodd" d="M9.08135 6.02092C10.8886 5.19693 12.9263 5.02745 14.8449 5.54153C15.7785 5.79168 16.3325 6.75127 16.0823 7.68483C15.8322 8.6184 14.8726 9.17242 13.939 8.92227C12.8053 8.61849 11.6012 8.71864 10.5333 9.20555C9.46536 9.69245 8.6001 10.5358 8.08593 11.5908C7.57176 12.6459 7.44072 13.847 7.71527 14.9882C7.98983 16.1293 8.65288 17.1394 9.5907 17.8451C10.0995 18.228 10.3602 18.857 10.2713 19.4875C10.1825 20.118 9.75822 20.6506 9.16346 20.878C7.97461 21.3326 6.88247 22.0347 5.96517 22.952C5.65614 23.261 5.37158 23.5898 5.11271 23.9355C4.57331 24.6556 4.60848 25.2589 4.89235 25.799C5.22755 26.4369 5.99777 27.0983 7.08724 27.441C8.0092 27.731 8.52149 28.7135 8.23147 29.6355C7.94145 30.5574 6.95895 31.0697 6.03699 30.7797C4.24883 30.2172 2.64102 29.0388 1.79409 27.4272C0.895843 25.7178 0.944799 23.6617 2.31141 21.8372C2.66952 21.3591 3.06307 20.9044 3.4903 20.4771C4.14901 19.8184 4.87297 19.2399 5.64696 18.7479C5.02398 17.8676 4.56839 16.8709 4.31238 15.8069C3.84775 13.8758 4.06951 11.8431 4.93965 10.0576C5.80978 8.27205 7.27407 6.84491 9.08135 6.02092ZM31.4661 9.20555C30.3982 8.71864 29.1941 8.61849 28.0604 8.92227C27.1268 9.17242 26.1672 8.6184 25.9171 7.68483C25.6669 6.75127 26.2209 5.79168 27.1545 5.54153C29.0731 5.02745 31.1108 5.19693 32.9181 6.02092C34.7254 6.84491 36.1896 8.27205 37.0598 10.0576C37.9299 11.8431 38.1517 13.8758 37.687 15.8069C37.431 16.8709 36.9754 17.8676 36.3525 18.7479C37.1264 19.2399 37.8504 19.8184 38.5091 20.4771C38.9363 20.9044 39.3299 21.3591 39.688 21.8372C41.0546 23.6617 41.1036 25.7178 40.2053 27.4272C39.3584 29.0388 37.7506 30.2172 35.9624 30.7797C35.0405 31.0697 34.058 30.5574 33.7679 29.6355C33.4779 28.7135 33.9902 27.731 34.9122 27.441C36.0016 27.0983 36.7719 26.4369 37.1071 25.799C37.3909 25.2588 37.4261 24.6556 36.8867 23.9355C36.6278 23.5898 36.3433 23.261 36.0342 22.952C35.1169 22.0347 34.0248 21.3326 32.836 20.878C32.2412 20.6506 31.8169 20.118 31.7281 19.4875C31.6393 18.857 31.8999 18.228 32.4087 17.8451C33.3465 17.1394 34.0096 16.1293 34.2841 14.9882C34.5587 13.847 34.4277 12.6459 33.9135 11.5908C33.3993 10.5358 32.5341 9.69245 31.4661 9.20555ZM20.9999 12.25C18.2078 12.25 15.9444 14.5135 15.9444 17.3056C15.9444 20.0977 18.2079 22.3612 21 22.3612C23.792 22.3612 26.0555 20.0977 26.0555 17.3056C26.0555 14.5135 23.792 12.25 20.9999 12.25ZM26.6759 23.7074C28.4423 22.14 29.5555 19.8528 29.5555 17.3056C29.5555 12.5805 25.725 8.75 20.9999 8.75C16.2748 8.75 12.4444 12.5805 12.4444 17.3056C12.4444 19.8528 13.5576 22.1401 15.324 23.7074C14.1291 24.3079 13.0263 25.0997 12.0629 26.0631C11.6357 26.4903 11.2421 26.945 10.884 27.4231C10.0814 28.4946 9.7035 29.6889 9.77005 30.8941C9.83558 32.0808 10.3237 33.1432 11.0215 34.0009C12.3947 35.6888 14.6972 36.7501 17.1111 36.7501H24.8889C27.3027 36.7501 29.6052 35.6888 30.9784 34.0009C31.6762 33.1432 32.1644 32.0808 32.2299 30.8941C32.2964 29.6889 31.9185 28.4946 31.1159 27.4231C30.7578 26.945 30.3642 26.4903 29.937 26.0631C28.9737 25.0997 27.8708 24.3079 26.6759 23.7074ZM21 25.8612C18.5762 25.8612 16.2517 26.8241 14.5378 28.5379C14.2288 28.847 13.9442 29.1758 13.6853 29.5214C13.3291 29.997 13.2477 30.3923 13.2647 30.7011C13.2828 31.0285 13.4213 31.4046 13.7365 31.7921C14.3894 32.5946 15.6589 33.2501 17.1111 33.2501H24.8889C26.341 33.2501 27.6105 32.5946 28.2635 31.7921C28.5787 31.4046 28.7171 31.0285 28.7352 30.7011C28.7523 30.3923 28.6708 29.997 28.3146 29.5214C28.0557 29.1758 27.7712 28.847 27.4621 28.5379C25.7483 26.8241 23.4238 25.8612 21 25.8612Z" fill="#005DFF"/>
</svg>
